<svg width="512" height="512" viewBox="0 0 512 512" fill="none" xmlns="http://www.w3.org/2000/svg">
  <!-- Background with Gradient -->
  <defs>
    <linearGradient id="shiftyGradient" x1="0%" y1="0%" x2="100%" y2="100%">
      <stop offset="0%" style="stop-color:#3B82F6;stop-opacity:1" />
      <stop offset="100%" style="stop-color:#6366F1;stop-opacity:1" />
    </linearGradient>
  </defs>
  
  <!-- Rounded Rectangle Background -->
  <rect width="512" height="512" rx="143" fill="url(#shiftyGradient)"/>
  
  <!-- Stylized "S" Letter -->
  <g opacity="0.95">
    <!-- Top curve of S -->
    <path
      d="M 394 139 C 394 70 337 23 256 23 C 175 23 116 70 116 139 C 116 186 140 209 186 232 L 326 291 C 361 307.5 372 325 372 360 C 372 395 337 430 256 430 C 175 430 140 395 140 348"
      stroke="white"
      stroke-width="46"
      stroke-linecap="round"
      fill="none"
    />
    
    <!-- Bottom curve of S -->
    <path
      d="M 116 465 C 116 534 175 581 256 581 C 337 581 394 534 394 465 C 394 418 372 395 326 372 L 186 313 C 151 296.5 140 279 140 244 C 140 209 175 174 256 174 C 337 174 372 209 372 256"
      stroke="white"
      stroke-width="46"
      stroke-linecap="round"
      fill="none"
      transform="translate(0, -46)"
    />
  </g>
</svg>
